<svg width="95" height="52" viewBox="0 0 95 52" fill="none" xmlns="http://www.w3.org/2000/svg">
<path d="M74.8891 10.2963C71.0865 11.7386 66.3383 12.0384 61.5127 12.3418C55.2923 12.7343 48.9287 13.1353 45.2865 16.037C43.3327 17.5932 42.0443 20.2129 41.8975 24.5056C41.8748 25.1737 42.6197 27.2421 42.653 27.9871C43.1071 26.4564 44.1329 24.7556 44.8601 23.5092C46.97 19.8917 49.0365 17.2414 53.0895 16.2756C54.1913 16.0128 54.9135 16.1331 56.177 16.0897C57.2561 16.0512 57.5753 15.876 57.6136 16.9608C57.6519 18.0455 57.2695 18.1481 56.1905 18.1865C55.2264 18.2207 54.2658 18.6246 53.3769 18.8368C50.3894 19.5491 48.6073 21.7862 47.0586 24.4408C46.3024 25.7371 45.1063 27.8111 44.9644 31.2071C47.2963 27.7264 51.0996 22.8489 55.5045 21.6908C58.8473 20.8119 62.2328 21.0818 65.372 21.3347C70.1962 21.72 74.2847 22.0469 74.821 16.2222C74.8799 15.5811 74.9076 13.7293 74.9012 11.819C74.9005 11.3084 74.8962 10.7927 74.8891 10.2963Z" fill="#E7E7E7"/>
<path d="M41.95 23.5691C41.9269 23.8725 41.9096 24.1847 41.8982 24.5057C41.8748 25.1737 42.6198 27.2421 42.6531 27.9871C43.1071 26.4565 44.133 24.7557 44.8601 23.5092C45.3906 22.5811 45.9691 21.6815 46.5933 20.8141C44.9756 21.6081 43.423 22.5293 41.95 23.5691Z" fill="#94A04C"/>
<path d="M57.6179 17.0648C57.6271 18.0506 57.2362 18.1489 56.1926 18.1859C55.2285 18.2208 54.2679 18.6246 53.379 18.8369C50.3916 19.5491 48.6094 21.7863 47.0607 24.4408C46.3045 25.7371 45.1084 27.8112 44.9665 31.2072C47.2984 27.7264 51.1017 22.849 55.5066 21.6909C58.8495 20.8119 62.2349 21.0819 65.3749 21.3347C70.199 21.7201 76.5073 25.1096 74.3294 10.6133C71.2327 18.9971 62.054 16.119 57.6179 17.0648Z" fill="#303030"/>
<path d="M23.3323 48.0703H21.1621C23.1203 46.0173 24.3122 43.3484 24.5363 40.5149C24.7605 37.6814 24.0031 34.8571 22.3922 32.5195C20.7813 30.182 18.4159 28.4747 15.6957 27.6862C12.9756 26.8978 10.0677 27.0766 7.46377 28.1925C4.85982 29.3083 2.71958 31.2928 1.40495 33.8102C0.0903151 36.3277 -0.31805 39.2237 0.248894 42.0085C0.815839 44.7934 2.3233 47.2963 4.51641 49.094C6.70951 50.8916 9.45369 51.8738 12.2849 51.8744H23.3294C23.5813 51.8793 23.8316 51.8337 24.0658 51.7403C24.2999 51.6469 24.5131 51.5076 24.693 51.3305C24.8728 51.1534 25.0157 50.9421 25.1132 50.7089C25.2108 50.4757 25.261 50.2253 25.261 49.9723C25.261 49.7194 25.2108 49.469 25.1132 49.2358C25.0157 49.0026 24.8728 48.7913 24.693 48.6142C24.5131 48.4371 24.2999 48.2977 24.0658 48.2044C23.8316 48.111 23.5813 48.0654 23.3294 48.0703H23.3323ZM18.2953 45.571C16.9051 46.9664 15.076 47.8346 13.1196 48.0279C11.1633 48.2211 9.20072 47.7273 7.56634 46.6306C5.93196 45.534 4.72689 43.9023 4.15646 42.0137C3.58602 40.125 3.6855 38.0962 4.43796 36.2729C5.19043 34.4496 6.54932 32.9447 8.28309 32.0145C10.0169 31.0844 12.0182 30.7865 13.9462 31.1717C15.8742 31.5569 17.6095 32.6014 18.8565 34.1271C20.1034 35.6528 20.7849 37.5654 20.7847 39.539C20.7862 40.6595 20.567 41.7692 20.1399 42.8044C19.7128 43.8395 19.0862 44.7798 18.296 45.571H18.2953Z" fill="#303030"/>
<path d="M93.0684 36.334H78.8506C78.5988 36.3291 78.3484 36.3747 78.1143 36.4681C77.8802 36.5614 77.667 36.7008 77.4871 36.8779C77.3072 37.055 77.1644 37.2663 77.0668 37.4995C76.9693 37.7327 76.9191 37.9831 76.9191 38.236C76.9191 38.489 76.9693 38.7393 77.0668 38.9725C77.1644 39.2057 77.3072 39.4171 77.4871 39.5942C77.667 39.7713 77.8802 39.9106 78.1143 40.004C78.3484 40.0974 78.5988 40.143 78.8506 40.1381H93.0684C93.3203 40.143 93.5707 40.0974 93.8048 40.004C94.0389 39.9106 94.2521 39.7713 94.432 39.5942C94.6118 39.4171 94.7547 39.2057 94.8523 38.9725C94.9498 38.7393 95 38.489 95 38.236C95 37.9831 94.9498 37.7327 94.8523 37.4995C94.7547 37.2663 94.6118 37.055 94.432 36.8779C94.2521 36.7008 94.0389 36.5614 93.8048 36.4681C93.5707 36.3747 93.3203 36.3291 93.0684 36.334Z" fill="#303030"/>
<path d="M85.8194 48.019H84.0927C83.5901 48.019 83.1081 48.2195 82.7528 48.5763C82.3974 48.933 82.1978 49.4169 82.1978 49.9215C82.1978 50.426 82.3974 50.9099 82.7528 51.2667C83.1081 51.6234 83.5901 51.8239 84.0927 51.8239H85.8194C86.322 51.8239 86.804 51.6234 87.1593 51.2667C87.5147 50.9099 87.7143 50.426 87.7143 49.9215C87.7143 49.4169 87.5147 48.933 87.1593 48.5763C86.804 48.2195 86.322 48.019 85.8194 48.019Z" fill="#303030"/>
<path d="M78.713 48.019H69.5151C71.4593 45.957 72.6355 43.2848 72.8451 40.4533C73.0547 37.6218 72.2849 34.8043 70.6657 32.4764C69.0465 30.1485 66.6769 28.4527 63.9569 27.6752C61.2369 26.8976 58.333 27.0859 55.7352 28.2083C53.1374 29.3307 51.0048 31.3185 49.6973 33.8362C48.3899 36.3538 47.9875 39.2473 48.5582 42.0282C49.1289 44.8091 50.6377 47.3073 52.8299 49.101C55.0222 50.8948 57.7637 51.8744 60.5918 51.8744C66.627 51.8744 72.6736 51.8239 78.713 51.8239C79.2155 51.8239 79.6975 51.6234 80.0529 51.2667C80.4082 50.9099 80.6079 50.426 80.6079 49.9215C80.6079 49.4169 80.4082 48.933 80.0529 48.5763C79.6975 48.2195 79.2155 48.019 78.713 48.019ZM66.6008 45.5711C65.2107 46.9668 63.3815 47.8354 61.425 48.0289C59.4684 48.2224 57.5056 47.7288 55.8709 46.6323C54.2362 45.5357 53.0309 43.9041 52.4601 42.0153C51.8894 40.1265 51.9887 38.0974 52.7411 36.2739C53.4934 34.4504 54.8523 32.9451 56.5862 32.0147C58.32 31.0843 60.3216 30.7863 62.2498 31.1714C64.178 31.5565 65.9136 32.6009 67.1608 34.1267C68.4079 35.6525 69.0896 37.5652 69.0895 39.539C69.0908 40.6595 68.8716 41.7691 68.4445 42.8043C68.0174 43.8395 67.3909 44.7797 66.6008 45.5711Z" fill="#303030"/>
<path d="M64.8407 25.0669C71.5094 25.5996 77.1607 26.0512 78.0241 16.6802C78.0951 15.9515 78.1234 14.0256 78.1164 12.0848C78.1121 10.4316 78.0901 8.80842 78.0277 7.79774C77.9269 6.15957 76.4917 5.05772 75.0629 6.01712C71.9521 8.11896 66.6164 8.45514 61.1701 8.79845C49.934 9.50642 39.1555 10.4117 38.6809 24.22C38.5248 28.767 39.5095 34.7997 42.0635 42.8026H31.3219C32.0182 38.171 31.0392 33.4422 28.5622 29.4728C26.292 25.8204 22.8811 22.9786 18.9054 21.5505L27.2767 7.40743L30.7203 10.2778C31.1062 10.5902 31.5989 10.7377 32.0922 10.6883C32.5854 10.639 33.0395 10.3968 33.3563 10.014C33.6732 9.6313 33.8273 9.13879 33.7854 8.64293C33.7435 8.14706 33.5089 7.68765 33.1324 7.36398L28.0855 3.15816C27.5428 2.63822 26.8177 2.51215 26.1168 2.75075L22.3681 0.307746C21.1472 -0.489259 19.5425 0.354044 19.4545 1.77925L19.1601 6.36185C19.1416 6.67517 19.2006 6.98821 19.3318 7.2731C19.463 7.55799 19.6623 7.8059 19.912 7.99476C20.1617 8.18363 20.4541 8.30758 20.763 8.35559C21.072 8.4036 21.3879 8.37419 21.6828 8.26996L22.5384 7.97865L14.4132 21.7044C13.1504 23.7236 15.2646 24.4259 16.6834 24.8219C20.2469 25.8147 23.3401 28.2499 25.3478 31.4807C27.3594 34.7062 28.1474 38.5509 27.5676 42.3118C27.4612 43.0034 27.0901 44.1138 27.0901 44.7064C27.0901 45.2109 27.2898 45.6948 27.6452 46.0516C28.0005 46.4084 28.4825 46.6088 28.985 46.6088H44.6884C46.0498 46.6088 46.7962 45.3866 46.4968 44.1231C45.6809 39.8453 46.2918 35.5248 48.1547 32.049C51.9289 25.0092 57.7988 24.5049 64.8407 25.0669ZM45.7802 28.6644C46.8018 24.1239 49.3352 20.4779 54.0849 19.3447C54.9673 19.1372 55.8679 19.0179 56.7737 18.9886C57.2743 18.9709 57.7473 18.7543 58.0889 18.3865C58.4304 18.0186 58.6124 17.5296 58.5948 17.027C58.5772 16.5245 58.3615 16.0495 57.9951 15.7066C57.6287 15.3637 57.1416 15.181 56.641 15.1987C55.486 15.2348 54.3373 15.3851 53.2116 15.6474C47.607 16.9843 44.067 21.0206 42.4729 26.3931C42.4402 25.6737 42.4355 24.9914 42.4587 24.3461C42.8439 13.0726 52.4071 13.1638 61.4063 12.594C66.068 12.3006 70.6552 12.0114 74.3287 10.6175C74.3358 11.0976 74.34 11.5962 74.3414 12.089C74.3478 13.9345 74.3209 15.7215 74.2641 16.3426C73.7455 21.9693 69.7989 21.6538 65.1365 21.2813C57.2192 20.6445 50.6278 21.4237 45.7802 28.6644Z" fill="#303030"/>
</svg>
